<?xml version="1.0"?>
<svg xmlns="http://www.w3.org/2000/svg" xmlns:xlink="http://www.w3.org/1999/xlink" version="1.1" id="Capa_1" x="0px" y="0px" viewBox="0 0 401.647 401.647" style="enable-background:new 0 0 401.647 401.647;" xml:space="preserve" width="512px" height="512px" class=""><g><g>
	<path d="M377.265,182.958l-25.79-24.429c-2.25-2.132-5.176-3.841-8.4-4.998c-0.839-0.758-1.857-1.343-3.021-1.664l-23.231-6.421   c0.91-1.974,1.711-4.122,2.343-6.486c5.093-19.098-5.296-38.73-23.652-44.695c-2.823-0.917-5.805-1.383-8.864-1.383   c-8.416,0-15.821,3.433-21.012,6.248c-3.287-7.101-9.376-17.62-21.597-21.592c-3.523-1.146-7.186-1.726-10.885-1.726   c-15.125,0-29,9.636-34.526,23.979c-2.258,5.864-2.838,11.266-2.64,15.978c-2.091,0.22-4.077,0.561-5.825,1.034L60.632,151.856   c-0.219,0.059-0.431,0.131-0.64,0.208c-3.782,1.136-7.243,3.023-9.82,5.464l-25.79,24.431c-3.792,3.592-5.474,8.257-4.614,12.797   c0.858,4.541,4.129,8.269,8.971,10.228l26.353,10.66v98.787c0,8.296,5.549,17.439,12.908,21.27l121.444,63.196   c3.409,1.773,7.789,2.751,12.333,2.751c4.543,0,8.923-0.978,12.332-2.751L335.552,335.7c7.359-3.83,12.909-12.974,12.909-21.27   v-98.558l24.447-9.89c4.842-1.959,8.112-5.687,8.971-10.228C382.739,191.216,381.057,186.551,377.265,182.958z M212.627,105.185   c3.312-8.596,11.562-14.371,20.528-14.371c2.122,0,4.225,0.333,6.248,0.991c7.896,2.565,11.678,11.354,13.938,16.606   c1.529,3.554,2.85,6.622,6.574,7.833c0.806,0.262,1.651,0.395,2.514,0.395c0.001,0,0.003,0,0.004,0   c2.679-0.001,4.754-1.175,7.895-2.95c4.088-2.313,10.265-5.806,16.321-5.806c1.503,0,2.886,0.212,4.228,0.648   c10.596,3.443,16.783,15.359,13.796,26.563c-1.521,5.696-4.514,10.002-10.006,14.396c-9.73,7.787-43.593,21.36-52.669,22.03   c-6.556-5.473-26.53-37.147-29.741-48.816C210.394,115.934,210.505,110.693,212.627,105.185z M194.083,131.283   c1.372-0.371,3.132-0.605,5.008-0.719c3.262,8.6,9.98,20.476,15.744,29.559c6.862,10.815,11.738,17.005,15.206,20.606   l-28.264,8.268L95.59,157.935L194.083,131.283z M60.489,168.418c1.542-1.461,4.793-2.563,7.563-2.563   c0.981,0,1.646,0.135,2.032,0.247l119.201,34.87l-27.822,37.112c-0.903,1.206-2.92,2.08-4.796,2.08c-0.627,0-1.2-0.098-1.658-0.283   l-119.101-48.18L60.489,168.418z M74.923,322.394c-2.394-1.245-4.832-5.264-4.832-7.963v-92.719l79.292,32.076   c2.26,0.914,4.71,1.377,7.281,1.377c0.001,0,0.001,0,0.002,0c6.624,0,13.062-3.098,16.799-8.083l20.811-27.76v165.179   L74.923,322.394z M333.461,314.431c0,2.698-2.439,6.717-4.833,7.963l-119.353,62.108v-161.64l18.906,25.219   c3.737,4.986,10.175,8.084,16.8,8.084c2.572,0,5.022-0.463,7.282-1.377l81.197-32.847V314.431z M246.639,240.882   c-0.458,0.186-1.031,0.283-1.657,0.283c-1.876,0-3.894-0.875-4.798-2.081l-27.821-37.111l119.202-34.87   c0.385-0.112,1.05-0.247,2.031-0.247c2.77,0,6.021,1.102,7.563,2.563l24.581,23.283L246.639,240.882z" data-original="#000000" class="active-path" data-old_color="#fedb69" fill="#fedb69"/>
	<path d="M98.667,95.861c11.674,6.638,47.009,15.439,61.98,15.439c3.467,0,5.898-0.451,7.885-1.463   c1.99-1.014,7.274-3.706,18.173-29.009c4.909-11.399,10.508-26.761,11.498-35.686c0.709-6.386,0.959-16.072-5.03-26.422   C186.488,7.174,174.119,0,160.893,0c-5.646,0-11.045,1.292-16.05,3.842c-11.054,5.632-15.473,17.169-17.682,24.566   c-4.288-1.574-10.05-3.287-16.417-3.287c-5.087,0-9.84,1.106-14.126,3.29C79.42,37.174,72.228,58.19,80.246,76.258   C85.105,87.204,93.086,92.688,98.667,95.861z M103.428,41.776c2.187-1.114,4.58-1.655,7.316-1.655   c5.386,0,10.739,2.132,14.281,3.543c2.664,1.062,4.424,1.762,6.502,1.762c1.312,0,2.552-0.293,3.689-0.872   c3.503-1.786,4.407-5.044,5.552-9.169c1.527-5.503,4.083-14.713,10.884-18.178c2.876-1.465,5.984-2.207,9.24-2.207   c7.891,0,15.286,4.306,19.298,11.236c2.952,5.101,3.881,10.261,3.104,17.253c-1.386,12.486-15.896,46.354-21.6,52.784   c-0.264,0.016-0.608,0.027-1.048,0.027c-12.113,0-45.261-8.188-54.566-13.479c-6.104-3.471-9.73-7.254-12.126-12.649   C89.252,59.573,93.501,46.834,103.428,41.776z" data-original="#000000" class="active-path" data-old_color="#fedb69" fill="#fedb69"/>
</g></g> </svg>
